<?xml version="1.0" encoding="UTF-8" standalone="no"?>
<svg
   xmlns:dc="http://purl.org/dc/elements/1.1/"
   xmlns:cc="http://creativecommons.org/ns#"
   xmlns:rdf="http://www.w3.org/1999/02/22-rdf-syntax-ns#"
   xmlns:svg="http://www.w3.org/2000/svg"
   xmlns="http://www.w3.org/2000/svg"
   xmlns:sodipodi="http://sodipodi.sourceforge.net/DTD/sodipodi-0.dtd"
   xmlns:inkscape="http://www.inkscape.org/namespaces/inkscape"
   width="708"
   height="800"
   viewBox="0 0 566.4 640"
   version="1.1"
   id="svg2"
   inkscape:version="0.91 r13725"
   sodipodi:docname="Olympique_Nimes.svg">
  <metadata
     id="metadata87">
    <rdf:RDF>
      <cc:Work
         rdf:about="">
        <dc:format>image/svg+xml</dc:format>
        <dc:type
           rdf:resource="http://purl.org/dc/dcmitype/StillImage" />
        <dc:title></dc:title>
      </cc:Work>
    </rdf:RDF>
  </metadata>
  <defs
     id="defs85" />
  <sodipodi:namedview
     pagecolor="#ffffff"
     bordercolor="#666666"
     borderopacity="1"
     objecttolerance="10"
     gridtolerance="10"
     guidetolerance="10"
     inkscape:pageopacity="0"
     inkscape:pageshadow="2"
     inkscape:window-width="1280"
     inkscape:window-height="691"
     id="namedview83"
     showgrid="false"
     inkscape:zoom="0.30500808"
     inkscape:cx="182.6589"
     inkscape:cy="773.75"
     inkscape:window-x="0"
     inkscape:window-y="1"
     inkscape:window-maximized="1"
     inkscape:current-layer="svg2"
     units="px" />
  <g
     id="g4328"
     transform="matrix(0.53117457,0,0,0.53117457,-29.067341,-8.8934953)">
    <path
       id="path4326"
       d="M 57.76,236.05 C 53.83,163.02 53.93,89.83 56.82,16.77 409.6,16.76 762.38,16.7 1115.15,16.8 c 5.61,63.88 6.27,128.09 4.8,192.16 -2.72,99.17 -12.23,198.24 -30.3,295.82 -16.25,87.53 -39.44,173.95 -72.1,256.85 -28.6,72.57 -64.66,142.43 -109.79,206.16 -42.76,60.47 -93.91,115.19 -152.64,160.41 -49.76,38.31 -104.71,69.95 -162.96,93.42 -35.54,-13.86 -68.65,-33.28 -100.28,-54.46 C 427.76,1123.72 370.8,1070.13 321.5,1010.5 279.79,960.01 243.58,905.07 212.72,847.34 171.2,769.71 139.3,687.13 115.52,602.43 82.02,483.09 64.38,359.69 57.76,236.05"
       style="opacity:1;fill:#e0041d;fill-opacity:1"
       inkscape:connector-curvature="0" />
    <path
       id="path6"
       d="m 101.95,512.99 c 19.16,88.93 46.28,176.31 83.37,259.45 31.99,71.77 71.49,140.33 119,202.98 52.95,69.75 115.89,132.34 188.14,182.05 31.49,21.39 64.48,40.97 99.84,55.27 56.13,-23.31 109.32,-53.79 157.45,-90.94 60.86,-46.8 113.47,-103.93 156.99,-167.08 46.88,-67.93 83.54,-142.55 112.14,-219.87 31.42,-85.05 53.24,-173.44 68.13,-262.82 16.86,-102.1 24.93,-205.61 25.35,-309.07 0.27,-5.63 0.21,-11.27 -0.06,-16.89 -0.05,-40.37 -1.52,-80.75 -4.64,-121 -46.23,-0.16 -92.47,-0.03 -138.7,-0.07 -301.4,0 -602.79,0 -904.19,0 -6.16,163.29 2.83,327.93 37.18,487.99 z"
       style="opacity:1;fill:#ffffff"
       inkscape:connector-curvature="0" />
    <path
       d="m 92.77,53.76 c 329.93,-0.03 659.86,0.08 989.79,-0.06 2.93,31 3.89,62.15 4.68,93.26 1.73,108.36 -5.19,216.97 -22.28,324.04 -14.82,92.02 -37.31,183.04 -70.72,270.15 -29.27,76.29 -67.15,149.6 -115.79,215.4 -42.94,58.21 -94.5,110.22 -153.48,152.19 -40.43,28.8 -84.18,52.93 -130.07,71.86 -1.88,0.93 -3.73,-0.48 -5.48,-1.02 -34.24,-14.26 -66.24,-33.44 -96.69,-54.51 C 353.76824,1022.8453 256.52666,883.88237 194.98,737.15 160.04,652.94 135.45,564.66 118.96,475.06 96.19,351.18 88.71,224.82 91.28,99.02 91.71,83.93 92,68.84 92.77,53.76"
       id="path8"
       inkscape:connector-curvature="0"
       style="opacity:1;fill:#e0041d"
       sodipodi:nodetypes="cccccccccccccc" />
    <g
       id="#000000ff" />
    <path
       d="m 414.27,470.29 c 4.64,0.73 9.29,2.38 12.6,5.86 8.06,7.83 9.12,20.08 16.68,28.27 3.06,3.36 7.31,5.31 11.54,6.76 8.06,2.67 16.59,3.28 24.96,4.4 10.74,1.23 21.32,3.5 32.06,4.77 6.13,1.03 10.13,-4.72 15.25,-6.93 7.42,-3.82 15.74,0.07 23.56,-1.11 6.79,-1.19 11.35,-7.52 18.16,-8.61 7.13,-1.05 13,4.9 20.07,4.26 5.22,-0.57 7.01,-6.89 11.81,-8.23 14.47,-1.62 28.62,3.15 43.02,3.3 7.6,0.21 14.92,-2.76 20.69,-7.61 18.29,8.12 38.76,7.44 58.33,8.09 12.94,0.48 26.09,1.03 38.56,4.81 6.18,1.96 6.19,10.73 12.49,12.47 5.28,0.93 10.59,-1.42 15.87,-0.31 5.28,2.85 9.34,7.8 15.29,9.47 6.45,2.72 14.2,3.22 19.3,8.48 15.76,15.3 32.13,29.96 48.48,44.61 4.15,14.33 7.32,29.61 16.71,41.66 2.54,-0.49 5.15,-0.97 7.44,-2.25 7.2,-3.64 10.97,-11.42 17.79,-15.58 3.58,-2.27 7.9,-3.14 12.1,-3.12 6.42,5.34 13.44,10.12 18.92,16.5 6.73,8.29 8.59,19.46 7.91,29.86 -0.92,17.76 -6.39,35.06 -6.09,52.91 -0.01,7.73 2.63,15.13 6.43,21.77 4.29,7.61 9.27,16.13 6.6,25.19 -3.47,-1.24 -7.47,-2.01 -10.88,-0.2 -7.1,3.67 -10.59,11.47 -16.94,16.04 -4.75,3.42 -10.67,-0.92 -15.71,1.39 -4.33,1.6 -7.12,5.63 -11.26,7.52 -3.36,1.42 -6.03,-1.44 -8.12,-3.6 -11.61,15.72 -18.57,34.16 -27.54,51.38 -5.7,10.29 -12.28,20.21 -16.19,31.38 -1.85,5.1 -2.65,10.78 -1.09,16.07 1.53,5.62 5.29,10.28 7.07,15.81 2.87,8.87 4.68,18.36 3.11,27.67 -1.43,7.5 -6.26,13.96 -12.29,18.47 -10.14,7.9 -22.06,13.19 -32.01,21.36 -5.41,4.5 -10.49,9.45 -16.41,13.29 -8.04,5.14 -16.35,10.17 -25.66,12.63 -10.42,3.16 -21.73,3.08 -31.62,7.98 -7.33,3.05 -14.11,8.06 -22.23,8.68 -15.45,-9.03 -33.22,-12.53 -50.43,-16.66 1.84,-7.02 5.25,-13.96 11.23,-18.34 8.66,-6.54 20.1,-7.57 30.6,-6.94 -7.49,-8.11 -18.83,-10.03 -27.95,-15.57 -3.57,-2.47 -8.36,-0.9 -11.24,1.89 -5.92,5.65 -8.89,13.64 -14.68,19.39 -2.8,2.89 -6.77,4.08 -10.51,5.2 -13.43,3.84 -28.89,1.87 -40.11,-6.75 -2.69,-1.91 -4.31,-5.15 -7.44,-6.43 -4.13,-1.18 -8.75,1.07 -12.66,-1.17 -2.21,-1.43 -4.76,-3.42 -4.73,-6.31 -0.26,-8.01 -0.82,-16.8 3.98,-23.73 -4.39,-3.91 -9.74,-6.85 -15.59,-7.74 -10.85,-1.82 -21.69,1.09 -32.37,2.75 -13.93,2.59 -28.13,0.61 -42.11,-0.44 -23.05,-2.1 -46.32,-5.27 -69.44,-2.24 -16.75,2.33 -32.53,8.68 -48.73,13.19 -10.67,2.92 -21.88,5.31 -32.95,3.42 -8.18,-1.38 -15.64,-5.99 -20.88,-12.36 -1.05,-7.51 4.37,-15.72 12.22,-16.68 4.6,-0.51 8.98,-2.03 13.29,-3.63 -22.04,-2.07 -42.27,-16.74 -51.02,-37.08 -3.3,-7.12 -4.43,-14.95 -5.88,-22.58 0.89,-7.03 1.1,-14.21 3.33,-20.99 6.05,-20.62 23.56,-37.16 44.35,-42.42 -13.43,-4.63 -26.74,-11.9 -35.09,-23.73 -6.9,-9.52 -7.49,-22.72 -2.41,-33.18 4.93,-2.57 11.19,-1.44 16.29,0.39 11.81,4.56 21.16,14.33 33.79,16.98 14.9,3.22 30.45,2.63 45.15,6.95 6.69,2.05 12.15,6.75 18.74,9.05 15.83,5.68 32.44,8.9 49.09,11.03 11.32,1.26 22.78,2.26 34.15,0.98 21.34,-2.2 43.04,-1.9 64.13,2.23 16.62,3.31 32.9,9.14 47.12,18.47 3.2,2.08 5.16,5.49 8,7.98 10.16,7.51 23.73,9.5 35.85,6.32 13.72,-3.51 26.39,-10.06 39.73,-14.72 8.93,-3.81 19.31,-7.17 24.78,-15.77 0.35,-5.28 -2.47,-10.53 -6.76,-13.54 -5.78,-4.24 -12.87,-6.42 -18.2,-11.32 2.78,-5.56 4.83,-11.48 5.95,-17.61 1.56,-8.06 2.29,-16.63 6.82,-23.72 2.14,-3.53 5.06,-6.47 8.12,-9.2 -2.3,-12.14 0.42,-24.52 5.05,-35.77 2.12,-4.48 2.07,-10.48 6.79,-13.24 7.7,-4.97 17.43,-4.81 25.44,-9.08 -6.29,-10.6 -14.82,-20.11 -25.51,-26.43 -12.18,-7.23 -24.56,-14.43 -38.1,-18.82 -5.55,-1.89 -11.23,-3.4 -16.83,-5.1 -7.08,-2.19 -13.12,-7.14 -20.6,-8.11 -31.33,-4.97 -63.17,-3.11 -94.75,-3.16 -23.06,0.42 -46.23,0.46 -69.15,-2.43 -13.19,-2.03 -27.14,-4.6 -37.89,-13.05 -11.82,-10.53 -16.74,-26.1 -24.3,-39.54 -7.84,-14.17 -15.03,-29.61 -14.44,-46.2 m 246.21,59.33 c -3.37,1.32 -7.15,2.57 -9.44,5.52 -1.37,1.8 0.4,3.89 2.04,4.67 6.37,3.41 13.72,3.94 20.73,4.95 21.9,3.66 43.22,10.99 62.65,21.76 26.12,14.38 48.46,35.86 62.91,62.02 3.69,6.87 7.6,13.82 9.12,21.56 2.04,9.51 1.98,19.43 0.3,28.99 -4.55,25.8 -19.81,48.31 -37.69,66.87 -21.39,22.03 -47.02,39.42 -73.5,54.72 -2.86,2.95 -4.76,6.85 -6.07,10.74 -0.84,1.84 0.16,4.14 2.45,3.88 5.82,-1 10.67,-4.58 15.75,-7.35 13.5,-7.21 26.42,-15.48 38.7,-24.6 19.35,-14.33 37.32,-30.82 51.79,-50.15 15.25,-20.27 26.33,-44.55 27.29,-70.19 0.85,-10.74 -2.4,-21.27 -6.31,-31.13 -10.85,-26.61 -31.38,-48.31 -55.11,-64.03 -30.49,-20.15 -65.84,-31.67 -101.49,-38.61 -1.4,-0.42 -2.81,-0.12 -4.12,0.38 m 82.95,149.27 c -3.88,10.34 -3,22.08 1.03,32.24 2.69,6.86 8.33,13.33 16.13,13.92 -0.86,-9.37 -1.92,-18.81 -4.74,-27.83 -2.42,-6.97 -5.84,-14.41 -12.42,-18.33 m -386.17,97.1 c -0.82,1.13 -1.63,2.27 -2.44,3.43 9.64,2.83 19.27,5.7 28.88,8.62 -0.22,-2.29 -0.44,-4.55 -0.73,-6.81 -8.1,-3.51 -16.89,-5.29 -25.71,-5.24 m -5.75,7.03 c -2.69,3.66 -5.8,6.99 -8.51,10.64 2.84,5.07 5.33,10.31 8,15.47 7.89,1.19 15.56,3.55 23.36,5.2 3.68,-3.01 7.42,-5.93 10.97,-9.09 -0.52,-4.18 -0.87,-8.38 -1.19,-12.58 -10.89,-3.17 -21.71,-6.57 -32.63,-9.64 m 172.56,2.14 c -6.34,1.28 -9.05,9.71 -5.01,14.63 4.09,5.65 14.19,3.99 15.94,-2.87 2.51,-6.51 -4.26,-13.73 -10.93,-11.76 M 402.21,789 c 14.69,14.19 22.1,35.71 18.36,55.88 -2.09,13.62 -9.27,26.15 -19.2,35.6 1.89,-0.66 3.79,-1.34 5.76,-1.74 27.82,-5.04 55.67,-10.8 82.23,-20.7 -1.51,-3.14 -4.01,-5.77 -7.25,-7.11 -8.21,-3.57 -17.45,-2.82 -25.97,-5.13 -14.4,-13.59 -18.52,-35.09 -34.12,-47.73 -5.66,-4.84 -12.95,-6.69 -19.81,-9.07 m 144.23,2.56 c -6.84,1.85 -8.66,11.89 -2.91,16.02 5.34,4.59 14.82,0.54 14.76,-6.63 0.9,-6.29 -6,-11.39 -11.85,-9.39 m -244.6,30.47 c 1.44,1.03 2.92,2.04 4.42,3.01 4.15,-11.02 8.39,-22.01 12.63,-32.99 -8.57,7.95 -14.44,18.61 -17.05,29.98 m 21.6,-29.95 c -4.37,11.95 -9.11,23.77 -13.58,35.69 3.13,2.27 6.28,4.51 9.41,6.79 4.89,-1.17 9.87,-2.07 14.68,-3.56 5,-5.71 9.55,-11.83 14.33,-17.74 -3.59,-6.68 -6.88,-13.51 -10.42,-20.21 -4.81,-0.25 -9.6,-0.92 -14.42,-0.97 m 54.9,24.74 c 0.32,6.7 0.3,13.41 0.68,20.11 4.65,2.35 9.17,4.95 13.88,7.17 4.76,-2.87 9.65,-5.53 14.45,-8.34 -2.12,-9.01 -4.29,-18.01 -6.47,-27 -4.26,0 -8.52,-0.01 -12.78,0.01 -3.23,2.7 -6.53,5.34 -9.76,8.05 m 27,-8.07 c 2.23,9 4.24,18.05 6.57,27.03 1.79,-0.05 3.59,-0.07 5.39,-0.08 -0.13,-9.29 -1.99,-18.59 -6.13,-26.94 -1.95,-0.01 -3.89,-0.01 -5.83,-0.01 m -86.48,30.39 c -0.72,4.63 -1.35,9.27 -2.1,13.9 5.89,6.29 12.01,12.36 18.02,18.55 5.51,-0.84 11.05,-1.55 16.58,-2.31 0.77,-6.34 1.71,-12.65 2.35,-19 -4.54,-4.44 -8.78,-9.17 -13.21,-13.72 -0.93,-0.88 -2.02,-2.35 -3.5,-1.66 -6.06,1.34 -12.07,2.89 -18.14,4.24 m 39.28,11 c -0.78,6.71 -1.71,13.39 -2.56,20.1 3.07,2.81 6.21,5.56 9.26,8.41 9.08,-4.14 18.1,-8.39 27.18,-12.53 -0.01,-5.92 -0.29,-11.83 -0.57,-17.73 -4.27,-2.26 -8.56,-4.46 -12.79,-6.78 -6.89,2.75 -13.66,5.73 -20.52,8.53 m -53.1,6.61 c 5.09,12.16 14.41,22.43 25.94,28.79 0.03,-3.84 0.01,-7.67 0.03,-11.5 -5.62,-5.78 -11.25,-11.54 -16.92,-17.28 -3.02,0 -6.04,-0.01 -9.05,-0.01 m 87.79,13.76 c -6.38,3 -12.81,5.92 -19.19,8.94 -1.61,0.67 -3.23,1.65 -5.05,1.39 -0.09,0.64 0.13,1.23 0.45,1.81 -1.68,3.54 -4.17,6.6 -6.1,10 6.28,-0.89 12.09,-3.61 18.14,-5.4 9.21,-2.31 16.8,-8.76 22.68,-15.97 -3.61,-0.33 -7.48,-2.85 -10.93,-0.77 m 367.52,28.94 c 1.18,10.54 4.34,21.55 12.03,29.25 6.75,6.63 16.53,9.02 25.76,8.82 -2.15,-11.95 -9.2,-22.55 -18.03,-30.66 -5.35,-4.71 -12.28,-9.35 -19.76,-7.41 z"
       id="path81"
       style="opacity:1;fill:#ffffff"
       inkscape:connector-curvature="0" />
    <g
       id="g4301">
      <path
         inkscape:connector-curvature="0"
         style="opacity:1;fill:#ffffff"
         id="path61"
         d="m 144.72,70.72 c 270.77,0.01 541.53,0 812.29,0 23.93,0.05 47.87,-0.08 71.8,0.07 -0.11,63.99 -0.01,127.98 -0.05,191.97 -294.66,0.04 -589.31,-0.06 -883.97,0.05 -0.16,-64.03 -0.02,-128.06 -0.07,-192.09 m 743.04,38.02 c -8.68,7.76 -13.62,19.69 -12.29,31.33 0.95,11.49 8.02,21.9 17.56,28.12 13.59,8.58 29.79,10.97 45.07,14.95 6.15,1.68 12.79,2.83 17.88,6.92 4.58,3.63 4.52,10.76 1.26,15.24 -4.04,5.88 -11.22,8.58 -18.09,9.2 -9.11,0.88 -19.31,0.23 -26.64,-5.89 -6.12,-5.03 -8.58,-12.95 -9.99,-20.46 -10.92,1.14 -21.87,2.05 -32.81,3.01 1.21,13.33 6,26.86 15.86,36.27 9.99,9.63 23.98,13.67 37.53,14.71 13.01,0.9 26.34,0.34 38.87,-3.59 10.3,-3.22 19.79,-9.8 25.31,-19.22 7.03,-11.14 7.85,-25.5 3.43,-37.76 -3.56,-9.64 -11.43,-17.24 -20.59,-21.64 -15.08,-7.34 -31.98,-9.22 -47.87,-14.11 -4.63,-1.63 -9.89,-2.95 -13.02,-7.05 -2.53,-3.25 -1.59,-8.35 1.72,-10.71 4.32,-3.16 9.71,-4.52 14.99,-4.94 7.2,-0.34 15.06,-0.42 21.39,3.56 5.54,3.5 7.45,10.25 8.53,16.33 11.14,-0.57 22.29,-1.03 33.44,-1.31 0.23,-12.33 -4.54,-24.93 -14.06,-33.01 -12.54,-11.04 -30.18,-13.27 -46.27,-12.94 -14.52,0.03 -30.02,3.14 -41.21,12.99 m -700.5,131.25 c 10.66,0.02 21.32,0 31.98,0.01 0,-28.38 0.01,-56.75 -0.01,-85.13 18.93,28.35 37.61,56.86 56.56,85.19 10.98,-0.13 21.96,-0.02 32.95,-0.06 -0.06,-47.32 0.09,-94.64 -0.08,-141.94 -10.42,-0.7 -21.13,-0.1 -31.66,-0.3 -0.13,29.12 0.27,58.25 -0.2,87.36 -18.73,-28.87 -37.79,-57.54 -56.65,-86.32 -0.25,-0.24 -0.76,-0.72 -1.01,-0.96 -10.58,-0.24 -21.18,0.07 -31.76,-0.15 -0.26,47.43 -0.03,94.87 -0.12,142.3 M 375,97.76 c 0,47.42 0,94.83 0,142.24 11.33,0 22.67,0 34,0 0,-47.41 0,-94.82 0,-142.24 -11.33,0 -22.67,0 -34,0 m 106.76,0 c 0,47.42 0,94.83 0,142.24 10.91,0 21.82,0 32.72,0 0.04,-31.44 -0.05,-62.89 0.05,-94.33 2.06,5.45 3.21,11.2 4.89,16.77 7.16,25.86 14.33,51.71 21.48,77.56 10.95,-0.01 21.91,0.01 32.87,0 8.21,-29.25 16.38,-58.5 24.51,-87.77 0.52,-1.51 0.65,-3.3 1.87,-4.47 0.1,4.08 0.32,8.15 0.37,12.23 -0.03,26.66 0.02,53.32 -0.03,79.98 10.92,0.07 21.83,0.01 32.75,0.03 0,-47.41 0,-94.82 0,-142.24 -16.63,-0.01 -33.26,0.01 -49.89,-0.01 -8.63,29.5 -17.13,59.04 -25.84,88.51 -8.74,-29.51 -17.18,-59.12 -26.1,-88.57 -16.55,0.16 -33.1,0.02 -49.65,0.07 m 220.75,0 c 0,47.42 0,94.83 0,142.24 38.58,0 77.15,0 115.73,0 -0.02,-9.25 0.04,-18.5 -0.03,-27.75 -27.29,0.08 -54.58,-0.08 -81.87,0.09 -0.23,-11.03 -0.04,-22.07 -0.1,-33.1 24.5,-0.01 49,0.01 73.49,0 0,-9.16 0,-18.32 0,-27.48 -24.49,-0.01 -48.99,0.01 -73.49,0 0,-8.76 -0.01,-17.52 0.01,-26.27 26.33,0 52.66,0.01 78.99,-0.01 0,-9.24 0,-18.48 0,-27.72 -37.58,0 -75.15,0 -112.73,0 z" />
      <g
         id="g4283">
        <path
           d="m 211.5,304.62 c 11.95,-2.08 24.93,-1.07 35.54,5.22 11.63,6.86 19.62,18.79 23.32,31.62 3.98,13.11 4.21,27.04 3.18,40.61 -1.51,16.56 -7.8,33.7 -21.19,44.3 -11.93,9.75 -28.65,11.6 -43.27,8.09 -13.32,-3.25 -24.16,-13.28 -30.17,-25.38 -7.67,-15.43 -8.67,-33.23 -7.37,-50.14 1.04,-14.19 5.57,-28.45 14.87,-39.43 6.19,-7.81 15.31,-13.12 25.09,-14.89 m 6.89,25.04 c -7.43,1.15 -13.52,6.63 -16.82,13.19 -4.83,9.58 -5.27,20.62 -5.02,31.14 0.46,10.39 2.57,21.6 10.01,29.4 5.08,5.56 13.1,8.27 20.5,6.61 7.61,-1.31 13.54,-7.34 16.84,-14.04 4.35,-9.33 5,-19.88 4.78,-30.02 -0.5,-10.28 -2,-21.53 -9.28,-29.4 -5.11,-5.87 -13.44,-8.35 -21.01,-6.88 z"
           id="path63"
           style="opacity:1;fill:#ffffff"
           inkscape:connector-curvature="0" />
        <path
           d="m 725.47,312.55 c 11.44,-8.69 26.84,-10.45 40.63,-7.76 13.08,2.61 24.31,11.7 30.58,23.34 8.57,15.43 9.84,33.68 8.81,50.96 -0.85,12.87 -4.27,25.76 -11.55,36.55 4.98,3.92 10.44,7.25 16.33,9.63 -3.05,7.26 -6.12,14.52 -9.22,21.77 -9.47,-2.82 -16.67,-9.74 -24.19,-15.76 -12.03,5.75 -26.28,6.17 -38.94,2.31 -14.28,-4.46 -25.08,-16.68 -29.96,-30.56 -5.68,-15.76 -6.15,-32.99 -4.13,-49.48 2.08,-15.56 8.66,-31.45 21.64,-41 m 10.25,26.43 c -7.37,10.36 -7.72,23.74 -7.42,35.97 0.54,10.65 2.61,22.34 10.73,29.98 4.69,4.85 11.77,6.88 18.37,5.77 -3.32,-2.49 -7.04,-4.35 -10.84,-5.97 2.31,-5.81 4.58,-11.64 6.96,-17.42 0.22,-1.5 1.58,-0.47 2.38,-0.23 6.66,2.77 12.69,6.85 18.19,11.48 4.82,-8.33 6.12,-18.1 6.38,-27.57 -0.07,-9.59 -0.78,-19.58 -5.22,-28.27 -3.49,-6.94 -10.22,-12.57 -18.13,-13.28 -8.24,-1.18 -16.72,2.71 -21.4,9.54 z"
           id="path65"
           style="opacity:1;fill:#ffffff"
           inkscape:connector-curvature="0" />
        <path
           d="m 878.06,305.94 c 8.17,-0.55 16.47,-0.04 24.69,-0.23 0.02,25.42 0.02,50.83 0.01,76.24 -0.51,11.16 -0.17,22.78 -4.67,33.25 -3.76,9 -11.71,16.02 -21.02,18.86 -6.81,2.19 -14.06,2.09 -21.13,1.87 -7.49,-0.37 -15.26,-1.92 -21.39,-6.5 -9.53,-6.46 -14.82,-17.78 -15.74,-29.04 -1.8,-17.74 -1.2,-35.59 -1.33,-53.39 0,-13.76 0,-27.52 0,-41.28 8.34,0.01 16.69,0 25.04,0 0,26.09 -0.01,52.18 0,78.28 0.23,7.05 -0.09,14.96 4.74,20.71 4.69,6.06 13.48,6.8 20.37,4.77 6.07,-1.9 9.36,-8.4 9.68,-14.41 1.19,-16.99 0.51,-34.03 0.69,-51.05 0.04,-12.69 -0.09,-25.39 0.06,-38.08 z"
           id="path67"
           style="opacity:1;fill:#ffffff"
           inkscape:connector-curvature="0" />
        <path
           d="m 347.47,305.75 c 9.64,-0.09 19.28,0.06 28.91,-0.08 7.85,15.28 14.92,30.98 22.83,46.23 7.31,-15.39 14.7,-30.75 21.98,-46.16 9.53,-0.05 19.06,0.01 28.59,-0.03 -10.57,20.74 -21.39,41.35 -32.08,62.03 -2.12,4.41 -4.77,8.58 -6.58,13.13 -0.29,17.7 -0.03,35.42 -0.12,53.13 -8.26,0 -16.51,0.01 -24.77,-0.01 0.02,-17.33 0,-34.66 0.01,-51.99 0.19,-1.95 -1,-3.57 -1.82,-5.22 -12.35,-23.66 -24.6,-47.37 -36.95,-71.03 z"
           id="path69"
           style="opacity:1;fill:#ffffff"
           inkscape:connector-curvature="0" />
        <path
           d="m 454.23,433.99 c 0.09,-42.78 -0.15,-85.57 0.12,-128.34 11.5,0.18 23,0 34.51,0.09 5.5,25.5 11.16,50.96 16.57,76.47 5.61,-25.47 11.02,-50.99 16.53,-76.48 11.61,0.01 23.22,-0.06 34.84,0.04 -0.07,42.74 -0.03,85.48 -0.03,128.22 -7.79,-0.05 -15.59,0.16 -23.37,-0.12 0.2,-25.28 0.14,-50.56 -0.35,-75.83 -3.05,11.56 -4.96,23.41 -7.55,35.09 -2.81,13.63 -5.66,27.24 -8.46,40.87 -7.76,0.02 -15.51,-0.05 -23.27,0.04 -5.23,-25.01 -10.34,-50.03 -15.47,-75.05 -1.35,1.33 -0.6,3.4 -0.81,5.08 0.09,23.29 -0.05,46.58 0.07,69.86 -7.78,0.14 -15.56,0.04 -23.33,0.06 z"
           id="path71"
           style="opacity:1;fill:#ffffff"
           inkscape:connector-curvature="0" />
        <path
           d="m 572.72,305.72 c 14.1,0.03 28.19,-0.04 42.29,0.03 6.83,0.44 13.96,0.11 20.39,2.81 10.08,4.46 16.52,14.8 18.49,25.37 1.77,9.76 1.64,20.06 -1.41,29.56 -3.49,10.46 -11.92,19.86 -22.99,22.21 -10.43,1.99 -21.11,1.56 -31.66,1.54 -0.15,15.58 -0.03,31.16 -0.06,46.75 -8.35,0.02 -16.7,0.01 -25.04,0.01 -0.01,-42.76 0,-85.52 -0.01,-128.28 M 597.76,331 c 0,10.34 0,20.67 0.01,31 7.43,-0.14 14.98,0.52 22.3,-1.11 7.56,-1.85 10.55,-10.76 9.3,-17.75 -0.67,-5.46 -4.81,-10.78 -10.47,-11.52 -7,-1 -14.09,-0.51 -21.14,-0.62 z"
           id="path73"
           style="opacity:1;fill:#ffffff"
           inkscape:connector-curvature="0" />
        <path
           d="m 667,305.73 c 8.26,0 16.51,-0.03 24.77,0.01 -0.02,42.75 -0.01,85.5 0,128.25 -8.26,0.02 -16.51,0 -24.77,0.01 0,-42.76 0,-85.52 0,-128.27 z"
           id="path75"
           style="opacity:1;fill:#ffffff"
           inkscape:connector-curvature="0" />
        <path
           d="m 920.23,305.72 c 26.59,0.01 53.18,0 79.77,0.01 0,8.42 0,16.84 0,25.27 -18.33,0 -36.67,0 -55,0 0,7.74 0,15.49 0,23.23 17,0.06 34,-0.09 51,0.07 0.66,8.29 0.07,16.83 0.28,25.22 -17.07,-0.03 -34.14,0.05 -51.21,-0.05 -0.15,9.75 -0.05,19.51 -0.06,29.26 19,-0.01 37.99,-0.01 56.99,0 0,8.42 0,16.84 0,25.27 -27.26,0 -54.51,0.01 -81.77,-0.01 0.01,-42.76 0.01,-85.51 0,-128.27 z"
           id="path77"
           style="opacity:1;fill:#ffffff"
           inkscape:connector-curvature="0" />
        <path
           d="m 286.48,306.72 c 8.27,0.01 16.53,0.01 24.8,0 -0.01,34 0,68.01 -0.01,102.01 17,-0.02 34.01,0 51.01,-0.01 -0.01,8.43 0,16.85 -0.01,25.28 -25.26,0 -50.52,0 -75.78,0 -0.01,-42.43 0,-84.85 -0.01,-127.28 z"
           id="path79"
           style="opacity:1;fill:#ffffff"
           inkscape:connector-curvature="0" />
      </g>
      <g
         id="g4294">
        <path
           d="m 887.76,108.74 c 11.19,-9.85 26.69,-12.96 41.21,-12.99 16.09,-0.33 33.73,1.9 46.27,12.94 9.52,8.08 14.29,20.68 14.06,33.01 -11.15,0.28 -22.3,0.74 -33.44,1.31 -1.08,-6.08 -2.99,-12.83 -8.53,-16.33 -6.33,-3.98 -14.19,-3.9 -21.39,-3.56 -5.28,0.42 -10.67,1.78 -14.99,4.94 -3.31,2.36 -4.25,7.46 -1.72,10.71 3.13,4.1 8.39,5.42 13.02,7.05 15.89,4.89 32.79,6.77 47.87,14.11 9.16,4.4 17.03,12 20.59,21.64 4.42,12.26 3.6,26.62 -3.43,37.76 -5.52,9.42 -15.01,16 -25.31,19.22 -12.53,3.93 -25.86,4.49 -38.87,3.59 -13.55,-1.04 -27.54,-5.08 -37.53,-14.71 -9.86,-9.41 -14.65,-22.94 -15.86,-36.27 10.94,-0.96 21.89,-1.87 32.81,-3.01 1.41,7.51 3.87,15.43 9.99,20.46 7.33,6.12 17.53,6.77 26.64,5.89 6.87,-0.62 14.05,-3.32 18.09,-9.2 3.26,-4.48 3.32,-11.61 -1.26,-15.24 -5.09,-4.09 -11.73,-5.24 -17.88,-6.92 -15.28,-3.98 -31.48,-6.37 -45.07,-14.95 -9.54,-6.22 -16.61,-16.63 -17.56,-28.12 -1.33,-11.64 3.61,-23.57 12.29,-31.33 z"
           id="path10"
           inkscape:connector-curvature="0"
           style="opacity:1;fill:#e0041d" />
        <path
           d="m 187.26,239.99 c 0.09,-47.43 -0.14,-94.87 0.12,-142.3 10.58,0.22 21.18,-0.09 31.76,0.15 0.25,0.24 0.76,0.72 1.01,0.96 18.86,28.78 37.92,57.45 56.65,86.32 0.47,-29.11 0.07,-58.24 0.2,-87.36 10.53,0.2 21.24,-0.4 31.66,0.3 0.17,47.3 0.02,94.62 0.08,141.94 -10.99,0.04 -21.97,-0.07 -32.95,0.06 -18.95,-28.33 -37.63,-56.84 -56.56,-85.19 0.02,28.38 0.01,56.75 0.01,85.13 -10.66,-0.01 -21.32,0.01 -31.98,-0.01 z"
           id="path12"
           inkscape:connector-curvature="0"
           style="opacity:1;fill:#e0041d" />
        <path
           d="m 375,97.76 c 11.33,0 22.67,0 34,0 0,47.42 0,94.83 0,142.24 -11.33,0 -22.67,0 -34,0 0,-47.41 0,-94.82 0,-142.24 z"
           id="path14"
           inkscape:connector-curvature="0"
           style="opacity:1;fill:#e0041d" />
        <path
           d="m 481.76,97.76 c 16.55,-0.05 33.1,0.09 49.65,-0.07 8.92,29.45 17.36,59.06 26.1,88.57 8.71,-29.47 17.21,-59.01 25.84,-88.51 16.63,0.02 33.26,0 49.89,0.01 0,47.42 0,94.83 0,142.24 -10.92,-0.02 -21.83,0.04 -32.75,-0.03 0.05,-26.66 0,-53.32 0.03,-79.98 -0.05,-4.08 -0.27,-8.15 -0.37,-12.23 -1.22,1.17 -1.35,2.96 -1.87,4.47 -8.13,29.27 -16.3,58.52 -24.51,87.77 -10.96,0.01 -21.92,-0.01 -32.87,0 -7.15,-25.85 -14.32,-51.7 -21.48,-77.56 -1.68,-5.57 -2.83,-11.32 -4.89,-16.77 -0.1,31.44 -0.01,62.89 -0.05,94.33 -10.9,0 -21.81,0 -32.72,0 0,-47.41 0,-94.82 0,-142.24 z"
           id="path16"
           inkscape:connector-curvature="0"
           style="opacity:1;fill:#e0041d" />
        <path
           d="m 702.51,97.76 c 37.58,0 75.15,0 112.73,0 0,9.24 0,18.48 0,27.72 -26.33,0.02 -52.66,0.01 -78.99,0.01 -0.02,8.75 -0.01,17.51 -0.01,26.27 24.5,0.01 49,-0.01 73.49,0 0,9.16 0,18.32 0,27.48 -24.49,0.01 -48.99,-0.01 -73.49,0 0.06,11.03 -0.13,22.07 0.1,33.1 27.29,-0.17 54.58,-0.01 81.87,-0.09 0.07,9.25 0.01,18.5 0.03,27.75 -38.58,0 -77.15,0 -115.73,0 0,-47.41 0,-94.82 0,-142.24 z"
           id="path18"
           inkscape:connector-curvature="0"
           style="opacity:1;fill:#e0041d" />
      </g>
    </g>
  </g>
</svg>
